<svg id="visual" viewBox="0 0 900 600" width="900" height="600" xmlns="http://www.w3.org/2000/svg" xmlns:xlink="http://www.w3.org/1999/xlink" version="1.1"><rect x="0" y="0" width="900" height="600" fill="#fff"></rect><path d="M0 464L21.5 470.3C43 476.7 86 489.3 128.8 489.8C171.7 490.3 214.3 478.7 257.2 470C300 461.3 343 455.7 385.8 457.5C428.7 459.3 471.3 468.7 514.2 474C557 479.3 600 480.7 642.8 482.3C685.7 484 728.3 486 771.2 482.8C814 479.7 857 471.3 878.5 467.2L900 463L900 601L878.5 601C857 601 814 601 771.2 601C728.3 601 685.7 601 642.8 601C600 601 557 601 514.2 601C471.3 601 428.7 601 385.8 601C343 601 300 601 257.2 601C214.3 601 171.7 601 128.8 601C86 601 43 601 21.5 601L0 601Z" fill="#ff0000" stroke-linecap="round" stroke-linejoin="miter"></path></svg>